<svg width="194" height="44" viewBox="0 0 194 44" fill="none" xmlns="http://www.w3.org/2000/svg">
<path fill-rule="evenodd" clip-rule="evenodd" d="M9.05273 5.59787C7.62207 6.59823 6.32837 7.78098 5.20532 9.1124C9.79462 8.68633 15.6252 9.38204 22.3944 12.7667C29.623 16.3809 35.4438 16.5031 39.4948 15.7217C39.1272 14.6088 38.6644 13.5392 38.1163 12.5224C33.479 13.0115 27.534 12.3641 20.6056 8.89998C16.206 6.70018 12.3278 5.79401 9.05273 5.59787ZM35.4074 8.66665C31.7453 4.575 26.4234 2 20.5 2C18.7605 2 17.0727 2.22211 15.4637 2.63948C17.6429 3.23409 19.9579 4.10399 22.3944 5.32227C27.467 7.85853 31.8464 8.67516 35.4074 8.66665ZM40.3609 19.6281C35.4669 20.5945 28.7088 20.396 20.6056 16.3444C13.03 12.5566 7.00043 12.6043 2.9339 13.508C2.724 13.5546 2.51904 13.6036 2.31903 13.6546C1.78662 14.8125 1.36163 16.0301 1.0567 17.2945C1.38239 17.2075 1.71893 17.1248 2.06616 17.0476C6.99957 15.9513 13.9701 15.9989 22.3944 20.2111C29.9701 23.9989 35.9996 23.9512 40.0662 23.0475C40.2055 23.0166 40.3428 22.9846 40.4778 22.9516C40.4926 22.6363 40.5 22.319 40.5 22C40.5 21.1975 40.4528 20.406 40.3609 19.6281ZM39.8248 27.1723C34.9783 28.0196 28.417 27.6944 20.6056 23.7888C13.03 20.001 7.00043 20.0487 2.9339 20.9524C2.03125 21.1529 1.21924 21.3972 0.50293 21.6551C0.500977 21.7698 0.5 21.8848 0.5 22C0.5 33.0457 9.45429 42 20.5 42C29.7571 42 37.5453 35.7109 39.8248 27.1723Z" fill="#1C5CFF"/>
<path d="M60.24 20.38H61.374C61.83 20.38 62.208 20.32 62.508 20.2C62.808 20.068 63.066 19.864 63.282 19.588L70.464 10.498C70.764 10.114 71.076 9.85 71.4 9.706C71.736 9.55 72.156 9.472 72.66 9.472H76.836L68.07 20.29C67.554 20.95 67.02 21.418 66.468 21.694C66.864 21.838 67.218 22.042 67.53 22.306C67.854 22.558 68.16 22.894 68.448 23.314L77.484 35.5H73.218C72.642 35.5 72.21 35.422 71.922 35.266C71.646 35.098 71.412 34.858 71.22 34.546L63.858 24.934C63.63 24.61 63.366 24.382 63.066 24.25C62.766 24.118 62.334 24.052 61.77 24.052H60.24V35.5H55.398V9.472H60.24V20.38ZM86.2118 16.744C87.5798 16.744 88.8218 16.966 89.9378 17.41C91.0658 17.854 92.0258 18.484 92.8178 19.3C93.6217 20.116 94.2397 21.112 94.6718 22.288C95.1038 23.464 95.3198 24.778 95.3198 26.23C95.3198 27.694 95.1038 29.014 94.6718 30.19C94.2397 31.366 93.6217 32.368 92.8178 33.196C92.0258 34.024 91.0658 34.66 89.9378 35.104C88.8218 35.548 87.5798 35.77 86.2118 35.77C84.8318 35.77 83.5778 35.548 82.4498 35.104C81.3218 34.66 80.3558 34.024 79.5518 33.196C78.7598 32.368 78.1418 31.366 77.6978 30.19C77.2658 29.014 77.0498 27.694 77.0498 26.23C77.0498 24.778 77.2658 23.464 77.6978 22.288C78.1418 21.112 78.7598 20.116 79.5518 19.3C80.3558 18.484 81.3218 17.854 82.4498 17.41C83.5778 16.966 84.8318 16.744 86.2118 16.744ZM86.2118 32.35C87.7478 32.35 88.8818 31.834 89.6138 30.802C90.3578 29.77 90.7298 28.258 90.7298 26.266C90.7298 24.274 90.3578 22.756 89.6138 21.712C88.8818 20.668 87.7478 20.146 86.2118 20.146C84.6518 20.146 83.4938 20.674 82.7378 21.73C81.9938 22.774 81.6218 24.286 81.6218 26.266C81.6218 28.246 81.9938 29.758 82.7378 30.802C83.4938 31.834 84.6518 32.35 86.2118 32.35ZM114.624 17.032V35.5H111.906C111.318 35.5 110.946 35.23 110.79 34.69L110.484 33.214C109.728 33.982 108.894 34.606 107.982 35.086C107.07 35.554 105.996 35.788 104.76 35.788C103.752 35.788 102.858 35.62 102.078 35.284C101.31 34.936 100.662 34.45 100.134 33.826C99.6056 33.202 99.2036 32.464 98.9276 31.612C98.6636 30.748 98.5316 29.8 98.5316 28.768V17.032H102.978V28.768C102.978 29.896 103.236 30.772 103.752 31.396C104.28 32.008 105.066 32.314 106.11 32.314C106.878 32.314 107.598 32.146 108.27 31.81C108.942 31.462 109.578 30.988 110.178 30.388V17.032H114.624ZM123.226 20.236C123.802 19.132 124.486 18.268 125.278 17.644C126.07 17.008 127.006 16.69 128.086 16.69C128.938 16.69 129.622 16.876 130.138 17.248L129.85 20.578C129.79 20.794 129.7 20.95 129.58 21.046C129.472 21.13 129.322 21.172 129.13 21.172C128.95 21.172 128.68 21.142 128.32 21.082C127.972 21.022 127.63 20.992 127.294 20.992C126.802 20.992 126.364 21.064 125.98 21.208C125.596 21.352 125.248 21.562 124.936 21.838C124.636 22.102 124.366 22.426 124.126 22.81C123.898 23.194 123.682 23.632 123.478 24.124V35.5H119.032V17.032H121.642C122.098 17.032 122.416 17.116 122.596 17.284C122.776 17.44 122.896 17.728 122.956 18.148L123.226 20.236ZM143.659 20.632C143.539 20.824 143.413 20.962 143.281 21.046C143.149 21.118 142.981 21.154 142.777 21.154C142.561 21.154 142.327 21.094 142.075 20.974C141.835 20.854 141.553 20.722 141.229 20.578C140.905 20.422 140.533 20.284 140.113 20.164C139.705 20.044 139.219 19.984 138.655 19.984C137.779 19.984 137.089 20.17 136.585 20.542C136.093 20.914 135.847 21.4 135.847 22C135.847 22.396 135.973 22.732 136.225 23.008C136.489 23.272 136.831 23.506 137.251 23.71C137.683 23.914 138.169 24.1 138.709 24.268C139.249 24.424 139.795 24.598 140.347 24.79C140.911 24.982 141.463 25.204 142.003 25.456C142.543 25.696 143.023 26.008 143.443 26.392C143.875 26.764 144.217 27.214 144.469 27.742C144.733 28.27 144.865 28.906 144.865 29.65C144.865 30.538 144.703 31.36 144.379 32.116C144.067 32.86 143.599 33.508 142.975 34.06C142.351 34.6 141.577 35.026 140.653 35.338C139.741 35.638 138.685 35.788 137.485 35.788C136.849 35.788 136.225 35.728 135.613 35.608C135.013 35.5 134.431 35.344 133.867 35.14C133.315 34.936 132.799 34.696 132.319 34.42C131.851 34.144 131.437 33.844 131.077 33.52L132.103 31.828C132.235 31.624 132.391 31.468 132.571 31.36C132.751 31.252 132.979 31.198 133.255 31.198C133.531 31.198 133.789 31.276 134.029 31.432C134.281 31.588 134.569 31.756 134.893 31.936C135.217 32.116 135.595 32.284 136.027 32.44C136.471 32.596 137.029 32.674 137.701 32.674C138.229 32.674 138.679 32.614 139.051 32.494C139.435 32.362 139.747 32.194 139.987 31.99C140.239 31.786 140.419 31.552 140.527 31.288C140.647 31.012 140.707 30.73 140.707 30.442C140.707 30.01 140.575 29.656 140.311 29.38C140.059 29.104 139.717 28.864 139.285 28.66C138.865 28.456 138.379 28.276 137.827 28.12C137.287 27.952 136.729 27.772 136.153 27.58C135.589 27.388 135.031 27.166 134.479 26.914C133.939 26.65 133.453 26.32 133.021 25.924C132.601 25.528 132.259 25.042 131.995 24.466C131.743 23.89 131.617 23.194 131.617 22.378C131.617 21.622 131.767 20.902 132.067 20.218C132.367 19.534 132.805 18.94 133.381 18.436C133.969 17.92 134.695 17.512 135.559 17.212C136.435 16.9 137.443 16.744 138.583 16.744C139.855 16.744 141.013 16.954 142.057 17.374C143.101 17.794 143.971 18.346 144.667 19.03L143.659 20.632ZM160.11 24.142C160.11 23.566 160.026 23.026 159.858 22.522C159.702 22.006 159.462 21.556 159.138 21.172C158.814 20.788 158.4 20.488 157.896 20.272C157.404 20.044 156.828 19.93 156.168 19.93C154.884 19.93 153.87 20.296 153.126 21.028C152.394 21.76 151.926 22.798 151.722 24.142H160.11ZM151.632 26.824C151.704 27.772 151.872 28.594 152.136 29.29C152.4 29.974 152.748 30.544 153.18 31C153.612 31.444 154.122 31.78 154.71 32.008C155.31 32.224 155.97 32.332 156.69 32.332C157.41 32.332 158.028 32.248 158.544 32.08C159.072 31.912 159.528 31.726 159.912 31.522C160.308 31.318 160.65 31.132 160.938 30.964C161.238 30.796 161.526 30.712 161.802 30.712C162.174 30.712 162.45 30.85 162.63 31.126L163.908 32.746C163.416 33.322 162.864 33.808 162.252 34.204C161.64 34.588 160.998 34.9 160.326 35.14C159.666 35.368 158.988 35.53 158.292 35.626C157.608 35.722 156.942 35.77 156.294 35.77C155.01 35.77 153.816 35.56 152.712 35.14C151.608 34.708 150.648 34.078 149.832 33.25C149.016 32.41 148.374 31.378 147.906 30.154C147.438 28.918 147.204 27.49 147.204 25.87C147.204 24.61 147.408 23.428 147.816 22.324C148.224 21.208 148.806 20.242 149.562 19.426C150.33 18.598 151.26 17.944 152.352 17.464C153.456 16.984 154.698 16.744 156.078 16.744C157.242 16.744 158.316 16.93 159.3 17.302C160.284 17.674 161.13 18.22 161.838 18.94C162.546 19.648 163.098 20.524 163.494 21.568C163.902 22.6 164.106 23.782 164.106 25.114C164.106 25.786 164.034 26.242 163.89 26.482C163.746 26.71 163.47 26.824 163.062 26.824H151.632ZM171.942 8.752V35.5H167.496V8.752H171.942ZM193.148 17.032L183.086 40.576C182.954 40.888 182.78 41.122 182.564 41.278C182.36 41.446 182.042 41.53 181.61 41.53H178.298L181.754 34.114L174.284 17.032H178.19C178.538 17.032 178.808 17.116 179 17.284C179.204 17.452 179.354 17.644 179.45 17.86L183.374 27.436C183.506 27.76 183.614 28.084 183.698 28.408C183.794 28.732 183.884 29.062 183.968 29.398C184.076 29.062 184.184 28.732 184.292 28.408C184.4 28.072 184.52 27.742 184.652 27.418L188.36 17.86C188.456 17.62 188.612 17.422 188.828 17.266C189.056 17.11 189.308 17.032 189.584 17.032H193.148Z" fill="black"/>
</svg>
